<svg id="visual" viewBox="0 0 900 450" width="900" height="450" xmlns="http://www.w3.org/2000/svg" xmlns:xlink="http://www.w3.org/1999/xlink" version="1.1"><rect x="0" y="0" width="900" height="450" fill="#ffffff"></rect><defs><linearGradient id="grad1_0" x1="50%" y1="100%" x2="100%" y2="0%"><stop offset="10%" stop-color="#ff1ed9" stop-opacity="1"></stop><stop offset="90%" stop-color="#ff1ed9" stop-opacity="1"></stop></linearGradient></defs><defs><linearGradient id="grad1_1" x1="50%" y1="100%" x2="100%" y2="0%"><stop offset="10%" stop-color="#ff1ed9" stop-opacity="1"></stop><stop offset="90%" stop-color="#ff57df" stop-opacity="1"></stop></linearGradient></defs><defs><linearGradient id="grad1_2" x1="50%" y1="100%" x2="100%" y2="0%"><stop offset="10%" stop-color="#ff7ae4" stop-opacity="1"></stop><stop offset="90%" stop-color="#ff57df" stop-opacity="1"></stop></linearGradient></defs><defs><linearGradient id="grad1_3" x1="50%" y1="100%" x2="100%" y2="0%"><stop offset="10%" stop-color="#ff7ae4" stop-opacity="1"></stop><stop offset="90%" stop-color="#ff98ea" stop-opacity="1"></stop></linearGradient></defs><defs><linearGradient id="grad1_4" x1="50%" y1="100%" x2="100%" y2="0%"><stop offset="10%" stop-color="#ffb3ef" stop-opacity="1"></stop><stop offset="90%" stop-color="#ff98ea" stop-opacity="1"></stop></linearGradient></defs><defs><linearGradient id="grad1_5" x1="50%" y1="100%" x2="100%" y2="0%"><stop offset="10%" stop-color="#ffb3ef" stop-opacity="1"></stop><stop offset="90%" stop-color="#ffcdf5" stop-opacity="1"></stop></linearGradient></defs><defs><linearGradient id="grad1_6" x1="50%" y1="100%" x2="100%" y2="0%"><stop offset="10%" stop-color="#ffe6fa" stop-opacity="1"></stop><stop offset="90%" stop-color="#ffcdf5" stop-opacity="1"></stop></linearGradient></defs><defs><linearGradient id="grad1_7" x1="50%" y1="100%" x2="100%" y2="0%"><stop offset="10%" stop-color="#ffe6fa" stop-opacity="1"></stop><stop offset="90%" stop-color="#ffffff" stop-opacity="1"></stop></linearGradient></defs><defs><linearGradient id="grad2_0" x1="0%" y1="100%" x2="50%" y2="0%"><stop offset="10%" stop-color="#ff1ed9" stop-opacity="1"></stop><stop offset="90%" stop-color="#ff1ed9" stop-opacity="1"></stop></linearGradient></defs><defs><linearGradient id="grad2_1" x1="0%" y1="100%" x2="50%" y2="0%"><stop offset="10%" stop-color="#ff57df" stop-opacity="1"></stop><stop offset="90%" stop-color="#ff1ed9" stop-opacity="1"></stop></linearGradient></defs><defs><linearGradient id="grad2_2" x1="0%" y1="100%" x2="50%" y2="0%"><stop offset="10%" stop-color="#ff57df" stop-opacity="1"></stop><stop offset="90%" stop-color="#ff7ae4" stop-opacity="1"></stop></linearGradient></defs><defs><linearGradient id="grad2_3" x1="0%" y1="100%" x2="50%" y2="0%"><stop offset="10%" stop-color="#ff98ea" stop-opacity="1"></stop><stop offset="90%" stop-color="#ff7ae4" stop-opacity="1"></stop></linearGradient></defs><defs><linearGradient id="grad2_4" x1="0%" y1="100%" x2="50%" y2="0%"><stop offset="10%" stop-color="#ff98ea" stop-opacity="1"></stop><stop offset="90%" stop-color="#ffb3ef" stop-opacity="1"></stop></linearGradient></defs><defs><linearGradient id="grad2_5" x1="0%" y1="100%" x2="50%" y2="0%"><stop offset="10%" stop-color="#ffcdf5" stop-opacity="1"></stop><stop offset="90%" stop-color="#ffb3ef" stop-opacity="1"></stop></linearGradient></defs><defs><linearGradient id="grad2_6" x1="0%" y1="100%" x2="50%" y2="0%"><stop offset="10%" stop-color="#ffcdf5" stop-opacity="1"></stop><stop offset="90%" stop-color="#ffe6fa" stop-opacity="1"></stop></linearGradient></defs><defs><linearGradient id="grad2_7" x1="0%" y1="100%" x2="50%" y2="0%"><stop offset="10%" stop-color="#ffffff" stop-opacity="1"></stop><stop offset="90%" stop-color="#ffe6fa" stop-opacity="1"></stop></linearGradient></defs><g transform="translate(900, 450)"><path d="M-360 0C-341.6 -26.6 -323.3 -53.2 -317.8 -85.2C-312.3 -117.1 -319.6 -154.3 -303.1 -175C-286.6 -195.7 -246.2 -199.8 -224.9 -224.9C-203.6 -249.9 -201.4 -295.8 -180 -311.8C-158.6 -327.7 -118.1 -313.8 -84.9 -316.8C-51.7 -319.9 -25.8 -339.9 0 -360L0 0Z" fill="#fff3fc"></path><path d="M-315 0C-298.9 -23.3 -282.9 -46.6 -278.1 -74.5C-273.3 -102.4 -279.7 -135 -265.2 -153.1C-250.8 -171.2 -215.4 -174.9 -196.8 -196.8C-178.1 -218.7 -176.2 -258.8 -157.5 -272.8C-138.8 -286.8 -103.3 -274.6 -74.3 -277.2C-45.2 -279.9 -22.6 -297.4 0 -315L0 0Z" fill="#ffdaf7"></path><path d="M-270 0C-256.2 -20 -242.5 -39.9 -238.3 -63.9C-234.2 -87.8 -239.7 -115.7 -227.3 -131.3C-214.9 -146.8 -184.6 -149.9 -168.6 -168.6C-152.7 -187.4 -151 -221.8 -135 -233.8C-119 -245.8 -88.6 -235.3 -63.7 -237.6C-38.8 -239.9 -19.4 -255 0 -270L0 0Z" fill="#ffc0f2"></path><path d="M-225 0C-213.5 -16.6 -202.1 -33.3 -198.6 -53.2C-195.2 -73.2 -199.8 -96.4 -189.4 -109.4C-179.1 -122.3 -153.9 -124.9 -140.5 -140.5C-127.2 -156.2 -125.9 -184.9 -112.5 -194.9C-99.1 -204.8 -73.8 -196.1 -53.1 -198C-32.3 -199.9 -16.2 -212.5 0 -225L0 0Z" fill="#ffa6ed"></path><path d="M-180 0C-170.8 -13.3 -161.6 -26.6 -158.9 -42.6C-156.1 -58.5 -159.8 -77.2 -151.6 -87.5C-143.3 -97.8 -123.1 -99.9 -112.4 -112.4C-101.8 -124.9 -100.7 -147.9 -90 -155.9C-79.3 -163.9 -59 -156.9 -42.4 -158.4C-25.8 -159.9 -12.9 -170 0 -180L0 0Z" fill="#ff8ae7"></path><path d="M-135 0C-128.1 -10 -121.2 -20 -119.2 -31.9C-117.1 -43.9 -119.9 -57.9 -113.7 -65.6C-107.5 -73.4 -92.3 -74.9 -84.3 -84.3C-76.3 -93.7 -75.5 -110.9 -67.5 -116.9C-59.5 -122.9 -44.3 -117.7 -31.8 -118.8C-19.4 -120 -9.7 -127.5 0 -135L0 0Z" fill="#ff6ae2"></path><path d="M-90 0C-85.4 -6.7 -80.8 -13.3 -79.4 -21.3C-78.1 -29.3 -79.9 -38.6 -75.8 -43.8C-71.6 -48.9 -61.5 -50 -56.2 -56.2C-50.9 -62.5 -50.3 -73.9 -45 -77.9C-39.7 -81.9 -29.5 -78.4 -21.2 -79.2C-12.9 -80 -6.5 -85 0 -90L0 0Z" fill="#ff41dc"></path><path d="M-45 0C-42.7 -3.3 -40.4 -6.7 -39.7 -10.6C-39 -14.6 -40 -19.3 -37.9 -21.9C-35.8 -24.5 -30.8 -25 -28.1 -28.1C-25.4 -31.2 -25.2 -37 -22.5 -39C-19.8 -41 -14.8 -39.2 -10.6 -39.6C-6.5 -40 -3.2 -42.5 0 -45L0 0Z" fill="#ff1ed9"></path></g><g transform="translate(0, 0)"><path d="M360 0C334.8 25.5 309.5 51 302.3 81C295.1 111 306 145.5 297.9 172C289.9 198.5 262.9 216.9 241.8 241.8C220.7 266.8 205.5 298.3 180 311.8C154.5 325.2 118.9 320.5 87.2 325.5C55.5 330.5 27.8 345.3 0 360L0 0Z" fill="#fff3fc"></path><path d="M315 0C292.9 22.3 270.8 44.6 264.5 70.9C258.2 97.1 267.7 127.3 260.7 150.5C253.6 173.7 230.1 189.8 211.6 211.6C193.1 233.5 179.8 261.1 157.5 272.8C135.2 284.5 104.1 280.4 76.3 284.8C48.6 289.2 24.3 302.1 0 315L0 0Z" fill="#ffdaf7"></path><path d="M270 0C251.1 19.1 232.2 38.3 226.8 60.8C221.4 83.3 229.5 109.2 223.4 129C217.4 148.8 197.2 162.6 181.4 181.4C165.5 200.1 154.1 223.8 135 233.8C115.9 243.9 89.2 240.4 65.4 244.1C41.6 247.9 20.8 259 0 270L0 0Z" fill="#ffc0f2"></path><path d="M225 0C209.2 15.9 193.5 31.9 189 50.6C184.5 69.4 191.2 91 186.2 107.5C181.2 124 164.3 135.5 151.1 151.1C138 166.8 128.4 186.5 112.5 194.9C96.6 203.2 74.3 200.3 54.5 203.4C34.7 206.6 17.4 215.8 0 225L0 0Z" fill="#ffa6ed"></path><path d="M180 0C167.4 12.8 154.8 25.5 151.2 40.5C147.6 55.5 153 72.8 149 86C144.9 99.2 131.5 108.4 120.9 120.9C110.4 133.4 102.7 149.2 90 155.9C77.3 162.6 59.5 160.2 43.6 162.8C27.8 165.3 13.9 172.6 0 180L0 0Z" fill="#ff8ae7"></path><path d="M135 0C125.5 9.6 116.1 19.1 113.4 30.4C110.7 41.6 114.7 54.6 111.7 64.5C108.7 74.4 98.6 81.3 90.7 90.7C82.8 100.1 77 111.9 67.5 116.9C58 121.9 44.6 120.2 32.7 122.1C20.8 124 10.4 129.5 0 135L0 0Z" fill="#ff6ae2"></path><path d="M90 0C83.7 6.4 77.4 12.8 75.6 20.3C73.8 27.8 76.5 36.4 74.5 43C72.5 49.6 65.7 54.2 60.5 60.5C55.2 66.7 51.4 74.6 45 77.9C38.6 81.3 29.7 80.1 21.8 81.4C13.9 82.6 6.9 86.3 0 90L0 0Z" fill="#ff41dc"></path><path d="M45 0C41.8 3.2 38.7 6.4 37.8 10.1C36.9 13.9 38.2 18.2 37.2 21.5C36.2 24.8 32.9 27.1 30.2 30.2C27.6 33.4 25.7 37.3 22.5 39C19.3 40.6 14.9 40.1 10.9 40.7C6.9 41.3 3.5 43.2 0 45L0 0Z" fill="#ff1ed9"></path></g></svg>