<svg id="visual" viewBox="0 0 900 450" width="900" height="450" xmlns="http://www.w3.org/2000/svg" xmlns:xlink="http://www.w3.org/1999/xlink" version="1.1"><rect x="0" y="0" width="900" height="450" fill="#ffffff"></rect><path d="M0 286L12.5 289.3C25 292.7 50 299.3 75 288.5C100 277.7 125 249.3 150 228.3C175 207.3 200 193.7 225 205C250 216.3 275 252.7 300 266.3C325 280 350 271 375 281C400 291 425 320 450 337.7C475 355.3 500 361.7 525 342.3C550 323 575 278 600 255C625 232 650 231 675 253C700 275 725 320 750 331.8C775 343.7 800 322.3 825 321.5C850 320.7 875 340.3 887.5 350.2L900 360L900 451L887.5 451C875 451 850 451 825 451C800 451 775 451 750 451C725 451 700 451 675 451C650 451 625 451 600 451C575 451 550 451 525 451C500 451 475 451 450 451C425 451 400 451 375 451C350 451 325 451 300 451C275 451 250 451 225 451C200 451 175 451 150 451C125 451 100 451 75 451C50 451 25 451 12.5 451L0 451Z" fill="#ca30ef"></path><path d="M0 435L12.5 425.8C25 416.7 50 398.3 75 368.7C100 339 125 298 150 294C175 290 200 323 225 349.2C250 375.3 275 394.7 300 374.2C325 353.7 350 293.3 375 261.3C400 229.3 425 225.7 450 224.2C475 222.7 500 223.3 525 254.5C550 285.7 575 347.3 600 382C625 416.7 650 424.3 675 399.3C700 374.3 725 316.7 750 278.5C775 240.3 800 221.7 825 244.3C850 267 875 331 887.5 363L900 395L900 451L887.5 451C875 451 850 451 825 451C800 451 775 451 750 451C725 451 700 451 675 451C650 451 625 451 600 451C575 451 550 451 525 451C500 451 475 451 450 451C425 451 400 451 375 451C350 451 325 451 300 451C275 451 250 451 225 451C200 451 175 451 150 451C125 451 100 451 75 451C50 451 25 451 12.5 451L0 451Z" fill="#972aad"></path><path d="M0 240L12.5 257.8C25 275.7 50 311.3 75 319C100 326.7 125 306.3 150 318.7C175 331 200 376 225 380.7C250 385.3 275 349.7 300 342C325 334.3 350 354.7 375 366.5C400 378.3 425 381.7 450 376.7C475 371.7 500 358.3 525 337.8C550 317.3 575 289.7 600 271C625 252.3 650 242.7 675 248C700 253.3 725 273.7 750 280.7C775 287.7 800 281.3 825 285.3C850 289.3 875 303.7 887.5 310.8L900 318L900 451L887.5 451C875 451 850 451 825 451C800 451 775 451 750 451C725 451 700 451 675 451C650 451 625 451 600 451C575 451 550 451 525 451C500 451 475 451 450 451C425 451 400 451 375 451C350 451 325 451 300 451C275 451 250 451 225 451C200 451 175 451 150 451C125 451 100 451 75 451C50 451 25 451 12.5 451L0 451Z" fill="#652270"></path><path d="M0 446L12.5 436.8C25 427.7 50 409.3 75 384.8C100 360.3 125 329.7 150 322.5C175 315.3 200 331.7 225 333C250 334.3 275 320.7 300 323C325 325.3 350 343.7 375 367.3C400 391 425 420 450 430.8C475 441.7 500 434.3 525 411.2C550 388 575 349 600 342.3C625 335.7 650 361.3 675 360.3C700 359.3 725 331.7 750 340.3C775 349 800 394 825 384.5C850 375 875 311 887.5 279L900 247L900 451L887.5 451C875 451 850 451 825 451C800 451 775 451 750 451C725 451 700 451 675 451C650 451 625 451 600 451C575 451 550 451 525 451C500 451 475 451 450 451C425 451 400 451 375 451C350 451 325 451 300 451C275 451 250 451 225 451C200 451 175 451 150 451C125 451 100 451 75 451C50 451 25 451 12.5 451L0 451Z" fill="#36183a"></path><path d="M0 290L12.5 288.5C25 287 50 284 75 301C100 318 125 355 150 377C175 399 200 406 225 393.2C250 380.3 275 347.7 300 353.5C325 359.3 350 403.7 375 410.7C400 417.7 425 387.3 450 373.3C475 359.3 500 361.7 525 366.2C550 370.7 575 377.3 600 370.5C625 363.7 650 343.3 675 330.5C700 317.7 725 312.3 750 330.5C775 348.7 800 390.3 825 403.5C850 416.7 875 401.3 887.5 393.7L900 386L900 451L887.5 451C875 451 850 451 825 451C800 451 775 451 750 451C725 451 700 451 675 451C650 451 625 451 600 451C575 451 550 451 525 451C500 451 475 451 450 451C425 451 400 451 375 451C350 451 325 451 300 451C275 451 250 451 225 451C200 451 175 451 150 451C125 451 100 451 75 451C50 451 25 451 12.5 451L0 451Z" fill="#050405"></path><path d="M0 396L12.5 403.3C25 410.7 50 425.3 75 420C100 414.7 125 389.3 150 365.3C175 341.3 200 318.7 225 312.8C250 307 275 318 300 328.2C325 338.3 350 347.7 375 358.3C400 369 425 381 450 390.7C475 400.3 500 407.7 525 412.5C550 417.3 575 419.7 600 404.8C625 390 650 358 675 355.2C700 352.3 725 378.7 750 373.2C775 367.7 800 330.3 825 328C850 325.7 875 358.3 887.5 374.7L900 391L900 451L887.5 451C875 451 850 451 825 451C800 451 775 451 750 451C725 451 700 451 675 451C650 451 625 451 600 451C575 451 550 451 525 451C500 451 475 451 450 451C425 451 400 451 375 451C350 451 325 451 300 451C275 451 250 451 225 451C200 451 175 451 150 451C125 451 100 451 75 451C50 451 25 451 12.5 451L0 451Z" fill="#050405"></path><path d="M0 446L12.5 446.3C25 446.7 50 447.3 75 425.3C100 403.3 125 358.7 150 345.7C175 332.7 200 351.3 225 354.5C250 357.7 275 345.3 300 357C325 368.7 350 404.3 375 407C400 409.7 425 379.3 450 377.3C475 375.3 500 401.7 525 403.3C550 405 575 382 600 384.5C625 387 650 415 675 425.8C700 436.7 725 430.3 750 427C775 423.7 800 423.3 825 414.2C850 405 875 387 887.5 378L900 369L900 451L887.5 451C875 451 850 451 825 451C800 451 775 451 750 451C725 451 700 451 675 451C650 451 625 451 600 451C575 451 550 451 525 451C500 451 475 451 450 451C425 451 400 451 375 451C350 451 325 451 300 451C275 451 250 451 225 451C200 451 175 451 150 451C125 451 100 451 75 451C50 451 25 451 12.5 451L0 451Z" fill="#050405"></path><path d="M0 426L12.5 413.3C25 400.7 50 375.3 75 364.7C100 354 125 358 150 360C175 362 200 362 225 361.3C250 360.7 275 359.3 300 361.7C325 364 350 370 375 374.3C400 378.7 425 381.3 450 380.3C475 379.3 500 374.7 525 376.7C550 378.7 575 387.3 600 396.5C625 405.7 650 415.3 675 422.7C700 430 725 435 750 427.5C775 420 800 400 825 397C850 394 875 408 887.5 415L900 422L900 451L887.5 451C875 451 850 451 825 451C800 451 775 451 750 451C725 451 700 451 675 451C650 451 625 451 600 451C575 451 550 451 525 451C500 451 475 451 450 451C425 451 400 451 375 451C350 451 325 451 300 451C275 451 250 451 225 451C200 451 175 451 150 451C125 451 100 451 75 451C50 451 25 451 12.5 451L0 451Z" fill="#36183a"></path><path d="M0 363L12.5 373.3C25 383.7 50 404.3 75 405.5C100 406.7 125 388.3 150 383.3C175 378.3 200 386.7 225 393.2C250 399.7 275 404.3 300 398.7C325 393 350 377 375 378.8C400 380.7 425 400.3 450 411.2C475 422 500 424 525 417C550 410 575 394 600 384.2C625 374.3 650 370.7 675 377.5C700 384.3 725 401.7 750 406.8C775 412 800 405 825 403.3C850 401.7 875 405.3 887.5 407.2L900 409L900 451L887.5 451C875 451 850 451 825 451C800 451 775 451 750 451C725 451 700 451 675 451C650 451 625 451 600 451C575 451 550 451 525 451C500 451 475 451 450 451C425 451 400 451 375 451C350 451 325 451 300 451C275 451 250 451 225 451C200 451 175 451 150 451C125 451 100 451 75 451C50 451 25 451 12.5 451L0 451Z" fill="#652270"></path><path d="M0 428L12.5 425.8C25 423.7 50 419.3 75 420.8C100 422.3 125 429.7 150 430.7C175 431.7 200 426.3 225 427.7C250 429 275 437 300 432.8C325 428.7 350 412.3 375 407.3C400 402.3 425 408.7 450 417.3C475 426 500 437 525 431.7C550 426.3 575 404.7 600 398.8C625 393 650 403 675 413C700 423 725 433 750 437.5C775 442 800 441 825 435.5C850 430 875 420 887.5 415L900 410L900 451L887.5 451C875 451 850 451 825 451C800 451 775 451 750 451C725 451 700 451 675 451C650 451 625 451 600 451C575 451 550 451 525 451C500 451 475 451 450 451C425 451 400 451 375 451C350 451 325 451 300 451C275 451 250 451 225 451C200 451 175 451 150 451C125 451 100 451 75 451C50 451 25 451 12.5 451L0 451Z" fill="#972aad"></path><path d="M0 437L12.5 437.8C25 438.7 50 440.3 75 437.3C100 434.3 125 426.7 150 426.2C175 425.7 200 432.3 225 430C250 427.7 275 416.3 300 415.8C325 415.3 350 425.7 375 432.5C400 439.3 425 442.7 450 440C475 437.3 500 428.7 525 424C550 419.3 575 418.7 600 416.2C625 413.7 650 409.3 675 407.3C700 405.3 725 405.7 750 406.3C775 407 800 408 825 412.7C850 417.3 875 425.7 887.5 429.8L900 434L900 451L887.5 451C875 451 850 451 825 451C800 451 775 451 750 451C725 451 700 451 675 451C650 451 625 451 600 451C575 451 550 451 525 451C500 451 475 451 450 451C425 451 400 451 375 451C350 451 325 451 300 451C275 451 250 451 225 451C200 451 175 451 150 451C125 451 100 451 75 451C50 451 25 451 12.5 451L0 451Z" fill="#ca30ef"></path></svg>